<svg xmlns="http://www.w3.org/2000/svg" viewBox="0 0 152.71 130.89"><defs><style>.a{fill:#fff;}.b{fill:#17ff39;}.c{fill:#f8ff2e;}.d{fill:#f70006;}.e,.f,.g{fill:none;stroke:#000;stroke-linejoin:round;stroke-width:7px;}.e,.g{stroke-linecap:round;}.g{opacity:0.7;}</style></defs><title>logo main</title><rect width="152.71" height="130.89" rx="15"/><rect class="a" x="12.94" y="20.01" width="126.82" height="97.86" rx="7.44"/><circle class="b" cx="48.11" cy="10.69" r="5.03"/><circle class="c" cx="33.06" cy="10.69" r="5.03"/><circle class="d" cx="18.01" cy="10.69" r="5.03"/><polyline class="e" points="99.58 60.7 82.09 60.7 82.09 69.45 99.58 69.45 99.58 78.19 82.09 78.19"/><rect class="e" x="53.26" y="60.7" width="17.49" height="17.49"/><polyline class="e" points="24.63 78.19 24.63 60.7 42.12 60.7 42.12 78.19"/><rect class="e" x="111.1" y="32.15" width="17.49" height="17.49"/><polyline class="e" points="82.09 49.64 82.09 32.15 99.58 32.15"/><line class="e" x1="70.89" y1="32.15" x2="70.89" y2="49.64"/><line class="e" x1="53.4" y1="49.64" x2="53.4" y2="32.15"/><line class="f" x1="70.89" y1="40.9" x2="53.4" y2="40.9"/><polyline class="e" points="42.12 49.64 24.63 49.64 24.63 32.15 42.12 32.15"/><rect class="g" x="111.1" y="60.7" width="17.49" height="17.49"/><rect class="g" x="53.33" y="60.7" width="17.49" height="17.49"/><rect class="g" x="24.63" y="89.25" width="17.49" height="17.49"/><rect class="g" x="82.09" y="89.25" width="17.49" height="17.49"/><rect class="g" x="53.33" y="89.25" width="17.49" height="17.49"/></svg>